<svg xmlns="http://www.w3.org/2000/svg" viewBox="0 0 24 24" style="display: none;">
  <!-- Dashboard icon -->
  <symbol id="icon-dashboard" viewBox="0 0 24 24">
    <rect x="3" y="3" width="7" height="7" fill="currentColor"/>
    <rect x="14" y="3" width="7" height="7" fill="currentColor"/>
    <rect x="3" y="14" width="7" height="7" fill="currentColor"/>
    <rect x="14" y="14" width="7" height="7" fill="currentColor"/>
  </symbol>

  <!-- Analytics icon -->
  <symbol id="icon-analytics" viewBox="0 0 24 24">
    <path d="M3 13h2v8H3z M7 8h2v13H7z M11 3h2v18h-2z M15 11h2v10h-2z M19 5h2v16h-2z" fill="currentColor"/>
  </symbol>

  <!-- Plus icon -->
  <symbol id="icon-plus" viewBox="0 0 24 24">
    <path d="M12 2v20M2 12h20" stroke="currentColor" stroke-width="2" fill="none"/>
  </symbol>

  <!-- Search icon -->
  <symbol id="icon-search" viewBox="0 0 24 24">
    <circle cx="10" cy="10" r="6" stroke="currentColor" stroke-width="2" fill="none"/>
    <path d="M14.5 14.5l5.5 5.5" stroke="currentColor" stroke-width="2"/>
  </symbol>

  <!-- Close icon -->
  <symbol id="icon-close" viewBox="0 0 24 24">
    <path d="M6 6l12 12M18 6L6 18" stroke="currentColor" stroke-width="2"/>
  </symbol>

  <!-- Refresh icon -->
  <symbol id="icon-refresh" viewBox="0 0 24 24">
    <path d="M21.5 2v6h-6M2.5 22v-6h6" stroke="currentColor" stroke-width="2" fill="none"/>
    <path d="M3.326 11.523A9 9 0 0 1 20.674 12.477" stroke="currentColor" stroke-width="2" fill="none"/>
  </symbol>

  <!-- Edit icon -->
  <symbol id="icon-edit" viewBox="0 0 24 24">
    <path d="M3 17.25V21h3.75L17.81 9.94l-3.75-3.75L3 17.25z" fill="currentColor"/>
    <path d="M20.71 7.04c.39-.39.39-1.02 0-1.41l-2.34-2.34c-.39-.39-1.02-.39-1.41 0l-1.83 1.83 3.75 3.75 1.83-1.83z" fill="currentColor"/>
  </symbol>

  <!-- Trash icon -->
  <symbol id="icon-trash" viewBox="0 0 24 24">
    <path d="M6 19c0 1.1.9 2 2 2h8c1.1 0 2-.9 2-2V7H6v12zM19 4h-3.5l-1-1h-9l-1 1H5v2h14V4z" fill="currentColor"/>
  </symbol>

  <!-- Check icon -->
  <symbol id="icon-check" viewBox="0 0 24 24">
    <path d="M9 16.17L4.83 12l-1.42 1.41L9 19 21 7l-1.41-1.41L9 16.17z" fill="currentColor"/>
  </symbol>

  <!-- Alert icon -->
  <symbol id="icon-alert" viewBox="0 0 24 24">
    <path d="M1 21h22L12 2 1 21zm12-3h-2v-2h2v2zm0-4h-2v-4h2v4z" fill="currentColor"/>
  </symbol>

  <!-- Info icon -->
  <symbol id="icon-info" viewBox="0 0 24 24">
    <circle cx="12" cy="12" r="10" stroke="currentColor" stroke-width="2" fill="none"/>
    <path d="M12 16v-4M12 8h.01" stroke="currentColor" stroke-width="2"/>
  </symbol>

  <!-- Calendar icon -->
  <symbol id="icon-calendar" viewBox="0 0 24 24">
    <path d="M19 3h-1V1h-2v2H8V1H6v2H5c-1.105 0-2 .895-2 2v14c0 1.105.895 2 2 2h14c1.105 0 2-.895 2-2V5c0-1.105-.895-2-2-2zm0 16H5V8h14v11z" fill="currentColor"/>
  </symbol>

  <!-- Clock icon -->
  <symbol id="icon-clock" viewBox="0 0 24 24">
    <circle cx="12" cy="12" r="10" stroke="currentColor" stroke-width="2" fill="none"/>
    <path d="M12 6v6l4 2.5" stroke="currentColor" stroke-width="2" fill="none"/>
  </symbol>

  <!-- Download icon -->
  <symbol id="icon-download" viewBox="0 0 24 24">
    <path d="M19 13h-6v6h-2v-6H5v-2h6V5h2v6h6v2z" fill="currentColor"/>
  </symbol>
</svg>
